<mxfile host="65bd71144e">
    <diagram id="ZIm-MaUguh5dCd9j2C_C" name="第 1 页">
        <mxGraphModel dx="1275" dy="515" grid="1" gridSize="5" guides="1" tooltips="1" connect="1" arrows="1" fold="1" page="1" pageScale="1" pageWidth="827" pageHeight="1169" math="0" shadow="0">
            <root>
                <mxCell id="0"/>
                <mxCell id="1" parent="0"/>
                <mxCell id="26" value="struct mem_block_desc *desc" style="rounded=0;whiteSpace=wrap;html=1;" parent="1" vertex="1">
                    <mxGeometry x="20" y="70" width="170" height="30" as="geometry"/>
                </mxCell>
                <mxCell id="27" value="uint32_t cnt" style="rounded=0;whiteSpace=wrap;html=1;" parent="1" vertex="1">
                    <mxGeometry x="20" y="100" width="170" height="30" as="geometry"/>
                </mxCell>
                <mxCell id="28" value="bool large" style="rounded=0;whiteSpace=wrap;html=1;" parent="1" vertex="1">
                    <mxGeometry x="20" y="130" width="170" height="30" as="geometry"/>
                </mxCell>
                <mxCell id="29" value="struct arena" style="text;html=1;strokeColor=none;fillColor=none;align=center;verticalAlign=middle;whiteSpace=wrap;rounded=0;" parent="1" vertex="1">
                    <mxGeometry x="70" y="40" width="70" height="30" as="geometry"/>
                </mxCell>
                <mxCell id="30" value="struct mem_block_desc" style="text;html=1;strokeColor=none;fillColor=none;align=center;verticalAlign=middle;whiteSpace=wrap;rounded=0;" parent="1" vertex="1">
                    <mxGeometry x="250" y="40" width="130" height="30" as="geometry"/>
                </mxCell>
                <mxCell id="31" value="block_size" style="rounded=0;whiteSpace=wrap;html=1;" parent="1" vertex="1">
                    <mxGeometry x="230" y="70" width="170" height="30" as="geometry"/>
                </mxCell>
                <mxCell id="32" value="block_per_arena" style="rounded=0;whiteSpace=wrap;html=1;" parent="1" vertex="1">
                    <mxGeometry x="230" y="100" width="170" height="30" as="geometry"/>
                </mxCell>
                <mxCell id="33" value="free_list" style="rounded=0;whiteSpace=wrap;html=1;" parent="1" vertex="1">
                    <mxGeometry x="230" y="130" width="170" height="30" as="geometry"/>
                </mxCell>
                <mxCell id="36" value="struct mem_block" style="text;html=1;strokeColor=none;fillColor=none;align=center;verticalAlign=middle;whiteSpace=wrap;rounded=0;" parent="1" vertex="1">
                    <mxGeometry x="460" y="40" width="130" height="30" as="geometry"/>
                </mxCell>
                <mxCell id="37" value="free_elem" style="rounded=0;whiteSpace=wrap;html=1;" parent="1" vertex="1">
                    <mxGeometry x="440" y="70" width="170" height="30" as="geometry"/>
                </mxCell>
                <mxCell id="39" value="&lt;div style=&quot;text-align: justify&quot;&gt;&lt;span&gt;struct mem_block&lt;/span&gt;&lt;/div&gt;" style="rounded=0;whiteSpace=wrap;html=1;align=right;verticalAlign=bottom;" parent="1" vertex="1">
                    <mxGeometry x="390" y="190" width="100" height="100" as="geometry"/>
                </mxCell>
                <mxCell id="40" value="struct mem_block" style="rounded=0;whiteSpace=wrap;html=1;verticalAlign=bottom;" parent="1" vertex="1">
                    <mxGeometry x="390" y="290" width="100" height="100" as="geometry"/>
                </mxCell>
                <mxCell id="41" value="struct mem_block" style="rounded=0;whiteSpace=wrap;html=1;verticalAlign=bottom;" parent="1" vertex="1">
                    <mxGeometry x="390" y="390" width="100" height="100" as="geometry"/>
                </mxCell>
                <mxCell id="66" style="edgeStyle=orthogonalEdgeStyle;curved=1;html=1;entryX=0;entryY=0.5;entryDx=0;entryDy=0;" parent="1" source="48" target="61" edge="1">
                    <mxGeometry relative="1" as="geometry">
                        <Array as="points">
                            <mxPoint x="440" y="540"/>
                            <mxPoint x="-10" y="540"/>
                            <mxPoint x="-10" y="305"/>
                        </Array>
                    </mxGeometry>
                </mxCell>
                <mxCell id="48" value="&lt;span&gt;struct arena&lt;/span&gt;" style="rounded=0;whiteSpace=wrap;html=1;" parent="1" vertex="1">
                    <mxGeometry x="390" y="490" width="100" height="20" as="geometry"/>
                </mxCell>
                <mxCell id="53" value="&lt;div style=&quot;text-align: justify&quot;&gt;&lt;span&gt;struct mem_block&lt;/span&gt;&lt;/div&gt;" style="rounded=0;whiteSpace=wrap;html=1;align=right;verticalAlign=bottom;" parent="1" vertex="1">
                    <mxGeometry x="250" y="190" width="100" height="100" as="geometry"/>
                </mxCell>
                <mxCell id="54" value="struct mem_block" style="rounded=0;whiteSpace=wrap;html=1;verticalAlign=bottom;" parent="1" vertex="1">
                    <mxGeometry x="250" y="290" width="100" height="100" as="geometry"/>
                </mxCell>
                <mxCell id="55" value="struct mem_block" style="rounded=0;whiteSpace=wrap;html=1;verticalAlign=bottom;" parent="1" vertex="1">
                    <mxGeometry x="250" y="390" width="100" height="100" as="geometry"/>
                </mxCell>
                <mxCell id="65" style="edgeStyle=orthogonalEdgeStyle;html=1;entryX=0;entryY=0.5;entryDx=0;entryDy=0;curved=1;" parent="1" source="56" target="61" edge="1">
                    <mxGeometry relative="1" as="geometry">
                        <Array as="points">
                            <mxPoint x="-30" y="500"/>
                            <mxPoint x="-30" y="305"/>
                        </Array>
                    </mxGeometry>
                </mxCell>
                <mxCell id="56" value="&lt;span&gt;struct arena&lt;/span&gt;" style="rounded=0;whiteSpace=wrap;html=1;" parent="1" vertex="1">
                    <mxGeometry x="250" y="490" width="100" height="20" as="geometry"/>
                </mxCell>
                <mxCell id="61" value="struct mem_block_desc" style="text;html=1;strokeColor=none;fillColor=none;align=center;verticalAlign=middle;whiteSpace=wrap;rounded=0;" parent="1" vertex="1">
                    <mxGeometry x="20" y="290" width="130" height="30" as="geometry"/>
                </mxCell>
                <mxCell id="62" value="block_size" style="rounded=0;whiteSpace=wrap;html=1;" parent="1" vertex="1">
                    <mxGeometry y="320" width="170" height="30" as="geometry"/>
                </mxCell>
                <mxCell id="63" value="block_per_arena" style="rounded=0;whiteSpace=wrap;html=1;" parent="1" vertex="1">
                    <mxGeometry y="350" width="170" height="30" as="geometry"/>
                </mxCell>
                <mxCell id="64" value="free_list" style="rounded=0;whiteSpace=wrap;html=1;" parent="1" vertex="1">
                    <mxGeometry y="380" width="170" height="30" as="geometry"/>
                </mxCell>
                <mxCell id="67" value="" style="endArrow=classic;html=1;curved=1;exitX=-0.006;exitY=0.911;exitDx=0;exitDy=0;exitPerimeter=0;entryX=1;entryY=1;entryDx=0;entryDy=0;" parent="1" source="55" target="64" edge="1">
                    <mxGeometry width="50" height="50" relative="1" as="geometry">
                        <mxPoint x="160" y="465" as="sourcePoint"/>
                        <mxPoint x="210" y="415" as="targetPoint"/>
                    </mxGeometry>
                </mxCell>
                <mxCell id="68" value="" style="endArrow=classic;html=1;curved=1;exitX=-0.006;exitY=0.911;exitDx=0;exitDy=0;exitPerimeter=0;entryX=1;entryY=0.75;entryDx=0;entryDy=0;" parent="1" target="64" edge="1">
                    <mxGeometry width="50" height="50" relative="1" as="geometry">
                        <mxPoint x="250.00000000000009" y="379.9999999999999" as="sourcePoint"/>
                        <mxPoint x="170.6" y="308.9" as="targetPoint"/>
                    </mxGeometry>
                </mxCell>
                <mxCell id="69" value="" style="endArrow=classic;html=1;curved=1;exitX=-0.006;exitY=0.911;exitDx=0;exitDy=0;exitPerimeter=0;entryX=1;entryY=0.5;entryDx=0;entryDy=0;" parent="1" target="64" edge="1">
                    <mxGeometry width="50" height="50" relative="1" as="geometry">
                        <mxPoint x="250" y="280" as="sourcePoint"/>
                        <mxPoint x="170" y="302.5" as="targetPoint"/>
                    </mxGeometry>
                </mxCell>
                <mxCell id="70" value="" style="endArrow=classic;html=1;curved=1;exitX=-0.006;exitY=0.911;exitDx=0;exitDy=0;exitPerimeter=0;" parent="1" edge="1">
                    <mxGeometry width="50" height="50" relative="1" as="geometry">
                        <mxPoint x="390.0000000000001" y="481.0999999999999" as="sourcePoint"/>
                        <mxPoint x="170" y="410" as="targetPoint"/>
                    </mxGeometry>
                </mxCell>
                <mxCell id="71" value="" style="endArrow=classic;html=1;curved=1;exitX=-0.006;exitY=0.911;exitDx=0;exitDy=0;exitPerimeter=0;entryX=1;entryY=0.75;entryDx=0;entryDy=0;" parent="1" target="64" edge="1">
                    <mxGeometry width="50" height="50" relative="1" as="geometry">
                        <mxPoint x="390" y="379.9999999999999" as="sourcePoint"/>
                        <mxPoint x="170" y="308.9" as="targetPoint"/>
                    </mxGeometry>
                </mxCell>
                <mxCell id="74" value="" style="endArrow=classic;html=1;curved=1;exitX=-0.006;exitY=0.911;exitDx=0;exitDy=0;exitPerimeter=0;entryX=1;entryY=0.5;entryDx=0;entryDy=0;" parent="1" target="64" edge="1">
                    <mxGeometry width="50" height="50" relative="1" as="geometry">
                        <mxPoint x="390" y="281.0999999999999" as="sourcePoint"/>
                        <mxPoint x="170" y="210" as="targetPoint"/>
                    </mxGeometry>
                </mxCell>
                <mxCell id="75" value="" style="rounded=0;whiteSpace=wrap;html=1;" vertex="1" parent="1">
                    <mxGeometry x="195" y="889" width="110" height="280" as="geometry"/>
                </mxCell>
                <mxCell id="76" value="" style="shape=curlyBracket;whiteSpace=wrap;html=1;rounded=1;" vertex="1" parent="1">
                    <mxGeometry x="115" y="889" width="40" height="280" as="geometry"/>
                </mxCell>
                <mxCell id="77" value="32MB" style="text;html=1;strokeColor=none;fillColor=none;align=center;verticalAlign=middle;whiteSpace=wrap;rounded=0;" vertex="1" parent="1">
                    <mxGeometry x="65" y="1014" width="60" height="30" as="geometry"/>
                </mxCell>
                <mxCell id="78" value="" style="line;strokeWidth=2;html=1;" vertex="1" parent="1">
                    <mxGeometry x="195" y="1144" width="110" height="10" as="geometry"/>
                </mxCell>
                <mxCell id="80" value="" style="endArrow=classic;html=1;" edge="1" parent="1">
                    <mxGeometry width="50" height="50" relative="1" as="geometry">
                        <mxPoint x="365" y="1148.5" as="sourcePoint"/>
                        <mxPoint x="305" y="1148.5" as="targetPoint"/>
                    </mxGeometry>
                </mxCell>
                <mxCell id="81" value="0x100000" style="text;html=1;strokeColor=none;fillColor=none;align=center;verticalAlign=middle;whiteSpace=wrap;rounded=0;" vertex="1" parent="1">
                    <mxGeometry x="365" y="1134" width="60" height="30" as="geometry"/>
                </mxCell>
                <mxCell id="82" value="" style="line;strokeWidth=2;html=1;" vertex="1" parent="1">
                    <mxGeometry x="195" y="1124" width="110" height="10" as="geometry"/>
                </mxCell>
                <mxCell id="85" value="" style="endArrow=classic;html=1;" edge="1" parent="1">
                    <mxGeometry width="50" height="50" relative="1" as="geometry">
                        <mxPoint x="365" y="1128.5" as="sourcePoint"/>
                        <mxPoint x="305" y="1128.5" as="targetPoint"/>
                    </mxGeometry>
                </mxCell>
                <mxCell id="86" value="0x200000" style="text;html=1;strokeColor=none;fillColor=none;align=center;verticalAlign=middle;whiteSpace=wrap;rounded=0;" vertex="1" parent="1">
                    <mxGeometry x="365" y="1114" width="60" height="30" as="geometry"/>
                </mxCell>
                <mxCell id="87" value="" style="line;strokeWidth=2;html=1;" vertex="1" parent="1">
                    <mxGeometry x="195" y="1004" width="110" height="10" as="geometry"/>
                </mxCell>
                <mxCell id="88" value="内存池" style="text;html=1;strokeColor=none;fillColor=none;align=center;verticalAlign=middle;whiteSpace=wrap;rounded=0;" vertex="1" parent="1">
                    <mxGeometry x="220" y="1054" width="60" height="30" as="geometry"/>
                </mxCell>
                <mxCell id="89" value="用户池" style="text;html=1;strokeColor=none;fillColor=none;align=center;verticalAlign=middle;whiteSpace=wrap;rounded=0;" vertex="1" parent="1">
                    <mxGeometry x="220" y="929" width="60" height="30" as="geometry"/>
                </mxCell>
                <mxCell id="90" value="" style="rounded=0;whiteSpace=wrap;html=1;" vertex="1" parent="1">
                    <mxGeometry x="-130" y="769" width="100" height="400" as="geometry"/>
                </mxCell>
                <mxCell id="91" value="" style="shape=curlyBracket;whiteSpace=wrap;html=1;rounded=1;" vertex="1" parent="1">
                    <mxGeometry x="-200" y="769" width="40" height="400" as="geometry"/>
                </mxCell>
                <mxCell id="92" value="4GB" style="text;html=1;strokeColor=none;fillColor=none;align=center;verticalAlign=middle;whiteSpace=wrap;rounded=0;" vertex="1" parent="1">
                    <mxGeometry x="-245" y="954" width="60" height="30" as="geometry"/>
                </mxCell>
                <mxCell id="93" value="" style="line;strokeWidth=2;html=1;" vertex="1" parent="1">
                    <mxGeometry x="-130" y="864" width="100" height="10" as="geometry"/>
                </mxCell>
                <mxCell id="94" value="" style="line;strokeWidth=0.5;html=1;" vertex="1" parent="1">
                    <mxGeometry x="-130" y="859" width="100" height="10" as="geometry"/>
                </mxCell>
                <mxCell id="97" value="" style="line;strokeWidth=0.5;html=1;" vertex="1" parent="1">
                    <mxGeometry x="-130" y="769" width="100" height="10" as="geometry"/>
                </mxCell>
                <mxCell id="98" value="" style="line;strokeWidth=0.5;html=1;" vertex="1" parent="1">
                    <mxGeometry x="-130" y="1159" width="100" height="10" as="geometry"/>
                </mxCell>
                <mxCell id="104" value="" style="edgeStyle=segmentEdgeStyle;endArrow=classic;html=1;" edge="1" parent="1">
                    <mxGeometry width="50" height="50" relative="1" as="geometry">
                        <mxPoint x="-30" y="1170" as="sourcePoint"/>
                        <mxPoint x="260" y="1170" as="targetPoint"/>
                        <Array as="points">
                            <mxPoint x="-30" y="1220"/>
                            <mxPoint x="260" y="1220"/>
                            <mxPoint x="260" y="1185"/>
                        </Array>
                    </mxGeometry>
                </mxCell>
                <mxCell id="105" value="" style="edgeStyle=segmentEdgeStyle;endArrow=classic;html=1;exitX=1;exitY=0.25;exitDx=0;exitDy=0;entryX=-0.003;entryY=0.962;entryDx=0;entryDy=0;entryPerimeter=0;" edge="1" parent="1" source="90" target="75">
                    <mxGeometry width="50" height="50" relative="1" as="geometry">
                        <mxPoint x="115" y="1070" as="sourcePoint"/>
                        <mxPoint x="165" y="1020" as="targetPoint"/>
                        <Array as="points">
                            <mxPoint x="165" y="869"/>
                            <mxPoint x="165" y="1158"/>
                        </Array>
                    </mxGeometry>
                </mxCell>
                <mxCell id="106" value="" style="edgeStyle=segmentEdgeStyle;endArrow=classic;html=1;entryX=1;entryY=1;entryDx=0;entryDy=0;" edge="1" parent="1" target="90">
                    <mxGeometry width="50" height="50" relative="1" as="geometry">
                        <mxPoint x="-30" y="779" as="sourcePoint"/>
                        <mxPoint x="5" y="1174" as="targetPoint"/>
                        <Array as="points">
                            <mxPoint x="-30" y="770"/>
                            <mxPoint x="30" y="770"/>
                            <mxPoint x="30" y="1169"/>
                        </Array>
                    </mxGeometry>
                </mxCell>
            </root>
        </mxGraphModel>
    </diagram>
</mxfile>